<svg xmlns="http://www.w3.org/2000/svg" xmlns:xlink="http://www.w3.org/1999/xlink" width="150" zoomAndPan="magnify" viewBox="0 0 112.5 37.5" height="50" preserveAspectRatio="xMidYMid meet" version="1.0"><defs><g/><clipPath id="ed52a82666"><path d="M 0.492188 0 L 111.511719 0 L 111.511719 37.007812 L 0.492188 37.007812 Z M 0.492188 0 " clip-rule="nonzero"/></clipPath></defs><g clip-path="url(#ed52a82666)"><path fill="#ffffff" d="M 0.492188 0 L 112.007812 0 L 112.007812 43.863281 L 0.492188 43.863281 Z M 0.492188 0 " fill-opacity="1" fill-rule="nonzero"/><path fill="#ffffff" d="M 0.492188 0 L 112.007812 0 L 112.007812 37.171875 L 0.492188 37.171875 Z M 0.492188 0 " fill-opacity="1" fill-rule="nonzero"/><path fill="#ffffff" d="M 0.492188 0 L 112.007812 0 L 112.007812 37.171875 L 0.492188 37.171875 Z M 0.492188 0 " fill-opacity="1" fill-rule="nonzero"/></g><g fill="#ff914d" fill-opacity="1"><g transform="translate(20.246059, 24.66257)"><g><path d="M 6.796875 -10.03125 C 6.796875 -9.78125 6.695312 -9.554688 6.5 -9.359375 C 6.3125 -9.160156 6.082031 -8.984375 5.8125 -8.828125 C 5.550781 -8.679688 5.273438 -8.554688 4.984375 -8.453125 C 4.703125 -8.359375 4.46875 -8.289062 4.28125 -8.25 C 4.207031 -7.5 4.144531 -6.75 4.09375 -6 C 4.050781 -5.25 4.03125 -4.5 4.03125 -3.75 C 4.03125 -3.34375 4.039062 -2.941406 4.0625 -2.546875 C 4.082031 -2.160156 4.09375 -1.769531 4.09375 -1.375 C 4.09375 -1.195312 4.078125 -1.003906 4.046875 -0.796875 C 4.015625 -0.585938 3.957031 -0.390625 3.875 -0.203125 C 3.789062 -0.015625 3.671875 0.140625 3.515625 0.265625 C 3.367188 0.390625 3.191406 0.453125 2.984375 0.453125 C 2.722656 0.453125 2.515625 0.378906 2.359375 0.234375 C 2.210938 0.0976562 2.097656 -0.0703125 2.015625 -0.28125 C 1.929688 -0.488281 1.875 -0.707031 1.84375 -0.9375 C 1.820312 -1.164062 1.8125 -1.375 1.8125 -1.5625 C 1.789062 -2.144531 1.773438 -2.734375 1.765625 -3.328125 C 1.753906 -3.921875 1.75 -4.515625 1.75 -5.109375 C 1.75 -5.609375 1.75 -6.097656 1.75 -6.578125 C 1.757812 -7.054688 1.765625 -7.546875 1.765625 -8.046875 C 1.628906 -8.023438 1.488281 -8.007812 1.34375 -8 C 1.195312 -7.988281 1.050781 -7.984375 0.90625 -7.984375 C 0.789062 -7.984375 0.632812 -7.992188 0.4375 -8.015625 C 0.25 -8.046875 0.0703125 -8.09375 -0.09375 -8.15625 C -0.269531 -8.21875 -0.421875 -8.304688 -0.546875 -8.421875 C -0.679688 -8.535156 -0.75 -8.675781 -0.75 -8.84375 C -0.75 -9.144531 -0.632812 -9.40625 -0.40625 -9.625 C -0.175781 -9.84375 0.113281 -10.03125 0.46875 -10.1875 C 0.832031 -10.351562 1.226562 -10.492188 1.65625 -10.609375 C 2.09375 -10.722656 2.523438 -10.8125 2.953125 -10.875 C 3.378906 -10.9375 3.769531 -10.976562 4.125 -11 C 4.488281 -11.03125 4.769531 -11.046875 4.96875 -11.046875 C 5.144531 -11.046875 5.335938 -11.039062 5.546875 -11.03125 C 5.765625 -11.019531 5.960938 -10.976562 6.140625 -10.90625 C 6.328125 -10.832031 6.484375 -10.726562 6.609375 -10.59375 C 6.734375 -10.457031 6.796875 -10.269531 6.796875 -10.03125 Z M 6.796875 -10.03125 "/></g></g></g><g fill="#ff914d" fill-opacity="1"><g transform="translate(26.587823, 24.66257)"><g><path d="M 6.671875 -2.0625 C 6.671875 -1.894531 6.664062 -1.664062 6.65625 -1.375 C 6.644531 -1.09375 6.601562 -0.816406 6.53125 -0.546875 C 6.457031 -0.273438 6.347656 -0.046875 6.203125 0.140625 C 6.054688 0.335938 5.851562 0.4375 5.59375 0.4375 C 5.226562 0.4375 4.945312 0.316406 4.75 0.078125 C 4.5625 -0.148438 4.472656 -0.441406 4.484375 -0.796875 C 4.160156 -0.515625 3.800781 -0.296875 3.40625 -0.140625 C 3.007812 0.015625 2.609375 0.09375 2.203125 0.09375 C 1.921875 0.09375 1.648438 0.0234375 1.390625 -0.109375 C 1.140625 -0.253906 0.914062 -0.429688 0.71875 -0.640625 C 0.519531 -0.859375 0.363281 -1.101562 0.25 -1.375 C 0.132812 -1.644531 0.078125 -1.910156 0.078125 -2.171875 C 0.078125 -2.640625 0.21875 -3.050781 0.5 -3.40625 C 0.789062 -3.757812 1.144531 -4.0625 1.5625 -4.3125 C 1.988281 -4.5625 2.4375 -4.757812 2.90625 -4.90625 C 3.382812 -5.050781 3.8125 -5.148438 4.1875 -5.203125 C 4.1875 -5.242188 4.1875 -5.285156 4.1875 -5.328125 C 4.195312 -5.367188 4.203125 -5.410156 4.203125 -5.453125 C 4.203125 -5.765625 4.117188 -6.007812 3.953125 -6.1875 C 3.785156 -6.375 3.550781 -6.46875 3.25 -6.46875 C 3 -6.46875 2.785156 -6.425781 2.609375 -6.34375 C 2.429688 -6.257812 2.265625 -6.164062 2.109375 -6.0625 C 1.953125 -5.96875 1.796875 -5.878906 1.640625 -5.796875 C 1.484375 -5.710938 1.304688 -5.671875 1.109375 -5.671875 C 0.898438 -5.671875 0.71875 -5.738281 0.5625 -5.875 C 0.414062 -6.007812 0.34375 -6.1875 0.34375 -6.40625 C 0.34375 -6.726562 0.4375 -7.019531 0.625 -7.28125 C 0.8125 -7.539062 1.050781 -7.757812 1.34375 -7.9375 C 1.632812 -8.125 1.945312 -8.269531 2.28125 -8.375 C 2.613281 -8.476562 2.925781 -8.53125 3.21875 -8.53125 C 3.476562 -8.53125 3.738281 -8.5 4 -8.4375 C 4.269531 -8.375 4.519531 -8.273438 4.75 -8.140625 C 4.988281 -8.003906 5.203125 -7.84375 5.390625 -7.65625 C 5.585938 -7.46875 5.742188 -7.242188 5.859375 -6.984375 C 6.035156 -6.617188 6.175781 -6.234375 6.28125 -5.828125 C 6.382812 -5.421875 6.46875 -5.003906 6.53125 -4.578125 C 6.59375 -4.160156 6.628906 -3.738281 6.640625 -3.3125 C 6.660156 -2.882812 6.671875 -2.46875 6.671875 -2.0625 Z M 4.328125 -2.546875 L 4.28125 -3.53125 C 4.257812 -3.53125 4.238281 -3.53125 4.21875 -3.53125 C 4.207031 -3.539062 4.191406 -3.546875 4.171875 -3.546875 C 4.046875 -3.546875 3.882812 -3.515625 3.6875 -3.453125 C 3.5 -3.390625 3.316406 -3.300781 3.140625 -3.1875 C 2.960938 -3.082031 2.8125 -2.957031 2.6875 -2.8125 C 2.570312 -2.675781 2.515625 -2.535156 2.515625 -2.390625 C 2.515625 -2.253906 2.5625 -2.160156 2.65625 -2.109375 C 2.75 -2.066406 2.863281 -2.046875 3 -2.046875 C 3.207031 -2.046875 3.429688 -2.097656 3.671875 -2.203125 C 3.921875 -2.316406 4.140625 -2.429688 4.328125 -2.546875 Z M 4.328125 -2.546875 "/></g></g></g><g fill="#ff914d" fill-opacity="1"><g transform="translate(34.45557, 24.66257)"><g><path d="M 3.234375 0.421875 C 2.734375 0.421875 2.296875 0.289062 1.921875 0.03125 C 1.546875 -0.226562 1.234375 -0.5625 0.984375 -0.96875 C 0.734375 -1.382812 0.539062 -1.84375 0.40625 -2.34375 C 0.28125 -2.851562 0.21875 -3.351562 0.21875 -3.84375 C 0.21875 -4.363281 0.28125 -4.898438 0.40625 -5.453125 C 0.539062 -6.003906 0.738281 -6.503906 1 -6.953125 C 1.257812 -7.410156 1.59375 -7.785156 2 -8.078125 C 2.414062 -8.367188 2.910156 -8.515625 3.484375 -8.515625 C 4.023438 -8.515625 4.488281 -8.363281 4.875 -8.0625 C 5.257812 -7.769531 5.570312 -7.398438 5.8125 -6.953125 C 6.050781 -6.503906 6.21875 -6.015625 6.3125 -5.484375 C 6.40625 -4.960938 6.441406 -4.46875 6.421875 -4 C 6.390625 -3.476562 6.304688 -2.953125 6.171875 -2.421875 C 6.035156 -1.890625 5.84375 -1.410156 5.59375 -0.984375 C 5.34375 -0.566406 5.019531 -0.226562 4.625 0.03125 C 4.226562 0.289062 3.765625 0.421875 3.234375 0.421875 Z M 3.375 -6.203125 C 3.226562 -6.203125 3.097656 -6.125 2.984375 -5.96875 C 2.867188 -5.8125 2.773438 -5.617188 2.703125 -5.390625 C 2.628906 -5.171875 2.570312 -4.9375 2.53125 -4.6875 C 2.5 -4.4375 2.484375 -4.21875 2.484375 -4.03125 C 2.484375 -3.800781 2.503906 -3.546875 2.546875 -3.265625 C 2.585938 -2.992188 2.644531 -2.742188 2.71875 -2.515625 C 2.800781 -2.285156 2.898438 -2.09375 3.015625 -1.9375 C 3.128906 -1.789062 3.257812 -1.71875 3.40625 -1.71875 C 3.5625 -1.71875 3.695312 -1.789062 3.8125 -1.9375 C 3.925781 -2.082031 4.015625 -2.265625 4.078125 -2.484375 C 4.148438 -2.710938 4.195312 -2.960938 4.21875 -3.234375 C 4.25 -3.503906 4.265625 -3.757812 4.265625 -4 C 4.265625 -4.207031 4.242188 -4.441406 4.203125 -4.703125 C 4.171875 -4.960938 4.117188 -5.203125 4.046875 -5.421875 C 3.972656 -5.648438 3.878906 -5.835938 3.765625 -5.984375 C 3.648438 -6.128906 3.519531 -6.203125 3.375 -6.203125 Z M 3.375 -6.203125 "/></g></g></g><g fill="#ff914d" fill-opacity="1"><g transform="translate(41.927149, 24.66257)"><g><path d="M 5.53125 -6.027344 L 2.375 -6.027344 L 2.375 -9.167969 L 5.53125 -9.167969 Z M 2.375 -1.425781 L 2.375 -5.035156 L 5.53125 -5.035156 L 5.53125 -1.425781 Z M 3.636719 -12.609375 C 3.53125 -11.902344 3.261719 -10.894531 3.035156 -10.171875 L 1.351562 -10.171875 L 1.351562 0.765625 L 2.375 0.765625 L 2.375 -0.421875 L 6.550781 -0.421875 L 6.550781 -10.171875 L 4.058594 -10.171875 C 4.3125 -10.820312 4.582031 -11.644531 4.839844 -12.382812 Z M 13.902344 -10.21875 L 9.40625 -10.21875 C 9.664062 -10.925781 9.875 -11.644531 10.054688 -12.382812 L 8.988281 -12.636719 C 8.503906 -10.578125 7.695312 -8.503906 6.6875 -7.183594 C 6.925781 -7.03125 7.410156 -6.730469 7.605469 -6.550781 C 8.128906 -7.257812 8.597656 -8.175781 9.015625 -9.183594 L 12.832031 -9.183594 C 12.636719 -3.199219 12.414062 -0.917969 11.917969 -0.390625 C 11.765625 -0.195312 11.601562 -0.164062 11.300781 -0.164062 C 10.957031 -0.164062 10.054688 -0.164062 9.078125 -0.253906 C 9.285156 0.0585938 9.421875 0.511719 9.453125 0.839844 C 10.292969 0.886719 11.152344 0.917969 11.675781 0.855469 C 12.1875 0.8125 12.53125 0.675781 12.863281 0.253906 C 13.464844 -0.480469 13.660156 -2.796875 13.902344 -9.648438 Z M 11.527344 -3.457031 C 11.046875 -4.34375 10.007812 -5.785156 9.167969 -6.851562 L 8.296875 -6.339844 C 9.121094 -5.257812 10.128906 -3.773438 10.578125 -2.871094 Z M 11.527344 -3.457031 "/></g></g></g><g fill="#ff914d" fill-opacity="1"><g transform="translate(57.703596, 24.66257)"><g><path d="M 9.917969 -10.203125 C 10.234375 -9.648438 10.578125 -8.972656 10.730469 -8.519531 L 11.707031 -8.882812 C 11.585938 -9.226562 11.316406 -9.738281 11.03125 -10.203125 L 14.003906 -10.203125 L 14.003906 -11.164062 L 9.316406 -11.164062 C 9.484375 -11.554688 9.632812 -11.976562 9.769531 -12.382812 L 8.671875 -12.636719 C 8.234375 -11.179688 7.4375 -9.78125 6.460938 -8.867188 C 6.71875 -8.714844 7.199219 -8.402344 7.394531 -8.234375 C 7.90625 -8.761719 8.414062 -9.4375 8.820312 -10.203125 Z M 3.726562 -10.203125 C 4.117188 -9.496094 4.507812 -8.640625 4.644531 -8.113281 L 5.636719 -8.476562 C 5.484375 -8.941406 5.183594 -9.601562 4.855469 -10.203125 L 7.167969 -10.203125 L 7.167969 -11.164062 L 3.410156 -11.164062 C 3.589844 -11.554688 3.757812 -11.960938 3.878906 -12.367188 L 2.808594 -12.636719 C 2.34375 -11.152344 1.546875 -9.648438 0.601562 -8.671875 C 0.871094 -8.519531 1.335938 -8.234375 1.546875 -8.054688 C 2.027344 -8.625 2.523438 -9.378906 2.960938 -10.203125 Z M 8.625 0.03125 C 7.695312 0.03125 7.527344 -0.105469 7.527344 -0.707031 L 7.527344 -2 L 14.15625 -2.570312 L 14.035156 -3.53125 L 7.527344 -2.976562 L 7.527344 -4.539062 L 12.789062 -4.988281 L 12.683594 -5.921875 L 7.527344 -5.46875 L 7.527344 -6.851562 C 9.453125 -7.0625 11.285156 -7.347656 12.714844 -7.679688 L 12.097656 -8.582031 C 9.691406 -7.996094 5.546875 -7.558594 1.96875 -7.320312 C 2.074219 -7.0625 2.195312 -6.671875 2.222656 -6.402344 C 3.578125 -6.476562 5.003906 -6.582031 6.417969 -6.730469 L 6.417969 -5.378906 L 1.652344 -4.972656 L 1.757812 -4.027344 L 6.417969 -4.433594 L 6.417969 -2.886719 L 0.917969 -2.417969 L 1.035156 -1.425781 L 6.417969 -1.894531 L 6.417969 -0.691406 C 6.417969 0.660156 6.882812 1.007812 8.566406 1.007812 L 11.976562 1.007812 C 13.390625 1.007812 13.75 0.527344 13.902344 -1.1875 C 13.570312 -1.261719 13.132812 -1.425781 12.863281 -1.621094 C 12.773438 -0.253906 12.652344 0.03125 11.917969 0.03125 Z M 8.625 0.03125 "/></g></g></g><g fill="#ff914d" fill-opacity="1"><g transform="translate(73.480045, 24.66257)"><g><path d="M 5.050781 -9.886719 C 4.539062 -10.519531 3.488281 -11.496094 2.691406 -12.1875 L 1.921875 -11.511719 C 2.75 -10.789062 3.773438 -9.753906 4.238281 -9.105469 Z M 4.222656 -1.414062 L 4.222656 -7.875 L 0.75 -7.875 L 0.75 -6.792969 L 3.125 -6.792969 L 3.125 -1.425781 C 3.125 -0.691406 2.691406 -0.195312 2.417969 0.03125 C 2.613281 0.210938 2.914062 0.617188 3.035156 0.855469 L 3.035156 0.839844 C 3.261719 0.554688 3.652344 0.253906 6.144531 -1.519531 C 6.027344 -1.742188 5.859375 -2.179688 5.785156 -2.480469 Z M 8.867188 -0.148438 C 7.90625 -0.148438 7.710938 -0.285156 7.710938 -0.886719 L 7.710938 -5.558594 L 12.246094 -5.558594 L 12.246094 -4.777344 L 13.34375 -4.777344 L 13.34375 -11.511719 L 6.296875 -11.511719 L 6.296875 -10.414062 L 12.246094 -10.414062 L 12.246094 -6.628906 L 6.582031 -6.628906 L 6.582031 -0.886719 C 6.582031 0.554688 7.109375 0.933594 8.792969 0.933594 L 12.234375 0.933594 C 13.871094 0.933594 14.230469 0.253906 14.410156 -2.179688 C 14.082031 -2.253906 13.601562 -2.449219 13.328125 -2.644531 C 13.238281 -0.527344 13.089844 -0.148438 12.15625 -0.148438 Z M 8.867188 -0.148438 "/></g></g></g><path stroke-linecap="butt" transform="matrix(0.339071, 0, 0, 0.339071, 8.039513, 11.777882)" fill="none" stroke-linejoin="miter" d="M 56.034178 8.442909 C 56.034178 9.157177 55.757687 9.813843 55.193185 10.412907 C 54.628682 11.00045 53.948975 11.518871 53.165584 11.968169 C 52.370673 12.417467 51.55272 12.786121 50.711727 13.074133 C 49.882254 13.362144 49.191026 13.557992 48.638044 13.673196 C 48.407635 15.896645 48.223308 18.108573 48.096583 20.320501 C 47.969858 22.532428 47.900735 24.744356 47.900735 26.967805 C 47.900735 28.142891 47.935297 29.317978 47.992899 30.470024 C 48.050501 31.622069 48.073542 32.774115 48.073542 33.926161 C 48.073542 34.456102 48.02746 35.020604 47.923776 35.642709 C 47.820092 36.264814 47.647285 36.840837 47.405355 37.393819 C 47.163426 37.946801 46.817812 38.407619 46.391555 38.776274 C 45.953778 39.156449 45.423837 39.340776 44.790212 39.340776 C 44.041382 39.340776 43.442318 39.133408 42.99302 38.718671 C 42.543722 38.292414 42.198109 37.785514 41.956179 37.17493 C 41.702729 36.575866 41.541443 35.930721 41.449279 35.251014 C 41.368636 34.571307 41.322554 33.960722 41.322554 33.40774 C 41.264952 31.679672 41.21887 29.940083 41.195829 28.200494 C 41.161267 26.449384 41.149747 24.698274 41.149747 22.935644 C 41.149747 21.461026 41.161267 20.020969 41.172788 18.615473 C 41.184308 17.198457 41.195829 15.758399 41.195829 14.283781 C 40.792613 14.341383 40.377876 14.387465 39.96314 14.410506 C 39.536883 14.445067 39.110626 14.456588 38.684369 14.456588 C 38.338755 14.456588 37.877937 14.422026 37.324955 14.341383 C 36.760453 14.27226 36.218991 14.145535 35.700571 13.961208 C 35.18215 13.76536 34.732852 13.51191 34.352677 13.177817 C 33.984022 12.843724 33.788175 12.417467 33.788175 11.899046 C 33.788175 11.035012 34.133788 10.274661 34.813495 9.629516 C 35.493202 8.98437 36.357237 8.419868 37.405598 7.936009 C 38.46548 7.46367 39.629047 7.060454 40.907817 6.726361 C 42.198109 6.392267 43.465359 6.138817 44.721089 5.95449 C 45.976819 5.758642 47.128864 5.620397 48.188747 5.539753 C 49.237108 5.44759 50.055061 5.413028 50.631084 5.413028 C 51.172545 5.413028 51.760088 5.436069 52.382193 5.470631 C 53.004298 5.516712 53.591841 5.643438 54.133303 5.839285 C 54.686285 6.046654 55.135583 6.346185 55.492717 6.749401 C 55.861371 7.152617 56.034178 7.71712 56.034178 8.442909 Z M 74.397788 31.89856 C 74.397788 32.416981 74.374747 33.096688 74.328665 33.926161 C 74.282583 34.767154 74.167379 35.585107 73.96001 36.380018 C 73.764163 37.17493 73.44159 37.854637 73.015333 38.43066 C 72.577555 39.006683 71.966971 39.294694 71.1951 39.294694 C 70.123698 39.294694 69.305745 38.94908 68.729723 38.257853 C 68.1537 37.566626 67.877209 36.702591 67.90025 35.66575 C 66.978613 36.472182 65.930251 37.105807 64.766685 37.566626 C 63.603119 38.027444 62.404991 38.257853 61.195343 38.257853 C 60.35435 38.257853 59.570959 38.062005 58.810609 37.658789 C 58.061779 37.244053 57.405113 36.725632 56.82909 36.092007 C 56.241546 35.458382 55.780728 34.744113 55.435114 33.949202 C 55.089501 33.15429 54.916694 32.370899 54.916694 31.599029 C 54.916694 30.205053 55.342951 28.995405 56.195465 27.958564 C 57.047979 26.921723 58.09634 26.034648 59.329029 25.297338 C 60.573239 24.560029 61.898091 23.972486 63.292067 23.546229 C 64.697562 23.108451 65.941772 22.82044 67.036215 22.682194 C 67.036215 22.532428 67.047736 22.405703 67.059256 22.290499 C 67.070777 22.175294 67.082297 22.048569 67.082297 21.898803 C 67.082297 21.000208 66.840367 20.285939 66.344988 19.732957 C 65.861129 19.191496 65.158381 18.915005 64.271305 18.915005 C 63.545517 18.915005 62.923412 19.030209 62.404991 19.283659 C 61.886571 19.525589 61.402711 19.80208 60.930373 20.101612 C 60.469554 20.401144 60.008736 20.677635 59.547918 20.931085 C 59.0871 21.173014 58.568679 21.288219 57.992656 21.288219 C 57.359031 21.288219 56.817569 21.092371 56.368272 20.689155 C 55.918974 20.285939 55.700085 19.767519 55.700085 19.133893 C 55.700085 18.177695 55.976576 17.313661 56.541078 16.53027 C 57.105581 15.758399 57.808329 15.101733 58.660843 14.560272 C 59.513356 14.030331 60.434993 13.615594 61.437273 13.304542 C 62.428032 13.00501 63.349669 12.855244 64.179142 12.855244 C 64.962533 12.855244 65.734404 12.947408 66.517795 13.131735 C 67.301186 13.327583 68.038495 13.615594 68.729723 13.995769 C 69.42095 14.387465 70.043055 14.871324 70.607557 15.424306 C 71.17206 15.988808 71.621357 16.645475 71.966971 17.394304 C 72.496912 18.465707 72.911649 19.594712 73.222701 20.792839 C 73.545274 21.990967 73.787203 23.223656 73.96001 24.479386 C 74.132817 25.735116 74.248022 26.979325 74.305624 28.235055 C 74.363226 29.490785 74.397788 30.711953 74.397788 31.89856 Z M 67.473993 30.516106 L 67.335747 27.566868 C 67.278145 27.566868 67.220543 27.566868 67.16294 27.543827 C 67.105338 27.532307 67.047736 27.520787 66.990133 27.520787 C 66.621479 27.520787 66.14914 27.624471 65.584638 27.808798 C 65.031656 27.993125 64.490194 28.258096 63.960253 28.580669 C 63.441832 28.914762 63.004055 29.283417 62.646921 29.686633 C 62.289787 30.089849 62.105459 30.516106 62.105459 30.942362 C 62.105459 31.345578 62.243705 31.622069 62.531716 31.771835 C 62.831248 31.910081 63.153821 31.979204 63.533996 31.979204 C 64.167621 31.979204 64.847328 31.817917 65.561597 31.483824 C 66.287386 31.149731 66.921011 30.827158 67.473993 30.516106 Z M 87.427425 39.260133 C 85.952807 39.260133 84.674036 38.868437 83.579592 38.085046 C 82.485149 37.313176 81.551992 36.310896 80.803162 35.101248 C 80.054332 33.8916 79.48983 32.543706 79.121175 31.057567 C 78.741 29.571428 78.556673 28.10833 78.556673 26.656752 C 78.556673 25.136052 78.741 23.546229 79.121175 21.921844 C 79.48983 20.285939 80.065853 18.7998 80.849244 17.463427 C 81.632635 16.127054 82.623394 15.02109 83.833042 14.168576 C 85.054211 13.327583 86.494268 12.901326 88.164735 12.901326 C 89.777599 12.901326 91.160054 13.339103 92.300579 14.214658 C 93.441104 15.101733 94.35122 16.196177 95.042448 17.509509 C 95.733675 18.822841 96.229055 20.251378 96.517066 21.81816 C 96.805078 23.373422 96.908762 24.84804 96.816598 26.230495 C 96.735955 27.751196 96.494025 29.294937 96.10233 30.861719 C 95.722155 32.416981 95.146132 33.810956 94.397302 35.055166 C 93.648472 36.299375 92.692274 37.313176 91.540229 38.085046 C 90.388183 38.868437 89.017248 39.260133 87.427425 39.260133 Z M 87.865203 19.686875 C 87.427425 19.686875 87.04725 19.917285 86.713157 20.389623 C 86.379064 20.850442 86.114093 21.403424 85.895204 22.07161 C 85.676316 22.739797 85.515029 23.431024 85.399825 24.168333 C 85.28462 24.905643 85.227018 25.550788 85.227018 26.09225 C 85.227018 26.794998 85.28462 27.543827 85.411345 28.350259 C 85.549591 29.156692 85.722398 29.894001 85.952807 30.573708 C 86.183216 31.253415 86.471227 31.817917 86.805321 32.267215 C 87.127893 32.716513 87.519589 32.935402 87.945846 32.935402 C 88.406664 32.935402 88.80988 32.716513 89.143973 32.290256 C 89.466546 31.852479 89.743037 31.311017 89.938885 30.642831 C 90.146253 29.974644 90.284499 29.248855 90.376662 28.453944 C 90.457306 27.659032 90.503387 26.921723 90.503387 26.230495 C 90.503387 25.59687 90.445785 24.894122 90.330581 24.133772 C 90.215376 23.361901 90.042569 22.647633 89.835201 21.990967 C 89.616312 21.32278 89.339821 20.769798 89.005728 20.343541 C 88.671635 19.905764 88.29146 19.686875 87.865203 19.686875 Z M 87.865203 19.686875 " stroke="#000000" stroke-width="1.385" stroke-opacity="1" stroke-miterlimit="4"/><path stroke-linecap="butt" transform="matrix(0.339071, 0, 0, 0.339071, 8.039513, 11.777882)" fill="none" stroke-linejoin="miter" d="M 116.25161 20.228337 L 106.94308 20.228337 L 106.94308 10.954368 L 116.25161 10.954368 Z M 106.94308 33.787915 L 106.94308 23.154533 L 116.25161 23.154533 L 116.25161 33.787915 Z M 110.664188 0.804845 C 110.364656 2.901569 109.558224 5.862326 108.890038 7.993611 L 103.936241 7.993611 L 103.936241 40.262413 L 106.94308 40.262413 L 106.94308 36.760194 L 119.26997 36.760194 L 119.26997 7.993611 L 111.908398 7.993611 C 112.668748 6.092735 113.452139 3.661919 114.212489 1.484552 Z M 140.939951 7.866886 L 127.691425 7.866886 C 128.440254 5.781683 129.062359 3.661919 129.5923 1.484552 L 126.447215 0.724202 C 125.018678 6.795483 122.633944 12.912846 119.673186 16.818281 C 120.375934 17.256059 121.79295 18.143134 122.368973 18.673075 C 123.924235 16.599393 125.295169 13.892085 126.539379 10.919807 L 137.794866 10.919807 C 137.218843 28.569148 136.550657 35.297095 135.087558 36.852357 C 134.638261 37.42838 134.154401 37.509023 133.267326 37.509023 C 132.253526 37.509023 129.5923 37.509023 126.712186 37.244053 C 127.33429 38.17721 127.725986 39.502062 127.81815 40.481301 C 130.306569 40.619547 132.829549 40.70019 134.38481 40.515863 C 135.88247 40.389138 136.907791 39.985922 137.875509 38.753233 C 139.64966 36.587387 140.225683 29.755755 140.939951 9.537352 Z M 133.935513 27.808798 C 132.518496 25.193654 129.465575 20.931085 126.977156 17.786 L 124.408094 19.29518 C 126.838911 22.486347 129.822709 26.875641 131.147562 29.536867 Z M 175.720212 7.912968 C 176.65337 9.537352 177.67869 11.541912 178.116468 12.878285 L 180.996582 11.806882 C 180.639448 10.781562 179.844536 9.283902 178.992022 7.912968 L 187.770611 7.912968 L 187.770611 5.078935 L 173.957582 5.078935 C 174.441442 3.915369 174.890739 2.671159 175.270915 1.484552 L 172.045186 0.724202 C 170.766416 5.032853 168.416242 9.157177 165.524607 11.852964 C 166.284958 12.290742 167.701974 13.223899 168.277997 13.707758 C 169.775656 12.164017 171.296357 10.170977 172.482964 7.912968 Z M 157.460287 7.912968 C 158.612333 9.98665 159.764379 12.521151 160.167595 14.064892 L 163.093791 13.00501 C 162.644493 11.634075 161.757418 9.687118 160.789699 7.912968 L 167.60981 7.912968 L 167.60981 5.078935 L 156.538651 5.078935 C 157.068592 3.915369 157.552451 2.728762 157.909585 1.519114 L 154.7645 0.724202 C 153.382045 5.113496 151.031872 9.537352 148.243921 12.428987 C 149.050353 12.878285 150.421288 13.707758 151.031872 14.249219 C 152.460409 12.555712 153.911986 10.343784 155.202277 7.912968 Z M 171.906941 38.085046 C 169.165072 38.085046 168.669692 37.68183 168.669692 35.90768 L 168.669692 32.105929 L 188.219909 30.423942 L 187.874295 27.578389 L 168.669692 29.225814 L 168.669692 24.617631 L 184.187749 23.281258 L 183.876696 20.539389 L 168.669692 21.864242 L 168.669692 17.786 C 174.349278 17.175416 179.752373 16.322902 183.96886 15.355183 L 182.148628 12.693958 C 175.063546 14.422026 162.8173 15.712317 152.276081 16.415065 C 152.587134 17.175416 152.944268 18.315941 153.024911 19.122373 C 157.02251 18.903484 161.227477 18.592432 165.397882 18.143134 L 165.397882 22.140733 L 151.354445 23.32734 L 151.653976 26.115291 L 165.397882 24.928684 L 165.397882 29.490785 L 149.177078 30.87324 L 149.534212 33.787915 L 165.397882 32.416981 L 165.397882 35.965282 C 165.397882 39.95136 166.768817 40.965161 171.734134 40.965161 L 181.803014 40.965161 C 185.961899 40.965161 187.021781 39.548144 187.471079 34.490663 C 186.49184 34.283295 185.21307 33.787915 184.406637 33.211893 C 184.153187 37.244053 183.796053 38.085046 181.618687 38.085046 Z M 207.88533 8.834604 C 206.387671 6.979811 203.277147 4.099696 200.926974 2.060575 L 198.668964 4.042094 C 201.111301 6.173379 204.11814 9.23782 205.500595 11.138696 Z M 205.454514 33.833997 L 205.454514 14.77916 L 195.212827 14.77916 L 195.212827 17.970327 L 202.217265 17.970327 L 202.217265 33.787915 C 202.217265 35.965282 200.926974 37.42838 200.132062 38.085046 C 200.719605 38.614987 201.606681 39.813115 201.952294 40.515863 L 201.952294 40.481301 C 202.620481 39.640308 203.761006 38.753233 211.122579 33.522945 C 210.765445 32.854758 210.281585 31.575988 210.062697 30.688912 Z M 219.152338 37.555105 C 216.306785 37.555105 215.730762 37.151889 215.730762 35.377739 L 215.730762 21.599271 L 229.117533 21.599271 L 229.117533 23.903363 L 232.354782 23.903363 L 232.354782 4.042094 L 211.571877 4.042094 L 211.571877 7.279342 L 229.117533 7.279342 L 229.117533 18.454186 L 212.41287 18.454186 L 212.41287 35.377739 C 212.41287 39.640308 213.956611 40.746272 218.921929 40.746272 L 229.071452 40.746272 C 233.910044 40.746272 234.969926 38.753233 235.499867 31.575988 C 234.532149 31.357099 233.115132 30.769556 232.3087 30.193533 C 232.05525 36.449141 231.605952 37.555105 228.852563 37.555105 Z M 219.152338 37.555105 " stroke="#000000" stroke-width="1.385" stroke-opacity="1" stroke-miterlimit="4"/><g fill="#ff914d" fill-opacity="1"><g transform="translate(3.598907, 19.016924)"><g><path d="M 7.78125 -6.65625 C 7.695312 -6.351562 7.523438 -6.140625 7.265625 -6.015625 C 7.015625 -5.890625 6.742188 -5.867188 6.453125 -5.953125 C 6.109375 -6.054688 5.832031 -6.238281 5.625 -6.5 C 5.425781 -6.757812 5.382812 -7.070312 5.5 -7.4375 C 5.539062 -7.582031 5.640625 -7.765625 5.796875 -7.984375 C 5.953125 -8.203125 6.125 -8.40625 6.3125 -8.59375 C 6.5 -8.78125 6.691406 -8.929688 6.890625 -9.046875 C 7.097656 -9.160156 7.273438 -9.195312 7.421875 -9.15625 C 7.503906 -9.132812 7.5625 -9.082031 7.59375 -9 C 7.632812 -8.925781 7.644531 -8.851562 7.625 -8.78125 C 7.582031 -8.664062 7.519531 -8.566406 7.4375 -8.484375 C 7.351562 -8.398438 7.265625 -8.316406 7.171875 -8.234375 C 7.085938 -8.148438 7.007812 -8.066406 6.9375 -7.984375 C 6.863281 -7.898438 6.8125 -7.8125 6.78125 -7.71875 C 6.945312 -7.769531 7.109375 -7.769531 7.265625 -7.71875 C 7.472656 -7.65625 7.625 -7.507812 7.71875 -7.28125 C 7.820312 -7.0625 7.84375 -6.851562 7.78125 -6.65625 Z M 5.203125 -7.421875 C 5.117188 -7.117188 4.953125 -6.90625 4.703125 -6.78125 C 4.453125 -6.65625 4.175781 -6.632812 3.875 -6.71875 C 3.550781 -6.820312 3.28125 -7.003906 3.0625 -7.265625 C 2.851562 -7.523438 2.804688 -7.84375 2.921875 -8.21875 C 2.960938 -8.363281 3.0625 -8.539062 3.21875 -8.75 C 3.375 -8.96875 3.546875 -9.171875 3.734375 -9.359375 C 3.921875 -9.546875 4.113281 -9.695312 4.3125 -9.8125 C 4.519531 -9.925781 4.695312 -9.960938 4.84375 -9.921875 C 4.925781 -9.898438 4.984375 -9.847656 5.015625 -9.765625 C 5.054688 -9.691406 5.066406 -9.617188 5.046875 -9.546875 C 5.003906 -9.429688 4.941406 -9.332031 4.859375 -9.25 C 4.773438 -9.164062 4.6875 -9.082031 4.59375 -9 C 4.507812 -8.914062 4.425781 -8.832031 4.34375 -8.75 C 4.269531 -8.664062 4.222656 -8.578125 4.203125 -8.484375 C 4.367188 -8.535156 4.53125 -8.535156 4.6875 -8.484375 C 4.914062 -8.421875 5.070312 -8.273438 5.15625 -8.046875 C 5.25 -7.828125 5.265625 -7.617188 5.203125 -7.421875 Z M 5.203125 -7.421875 "/></g></g></g><path stroke-linecap="butt" transform="matrix(0.328738, 0.097901, -0.097901, 0.328738, 0.456747, 4.481208)" fill="none" stroke-linejoin="miter" d="M 37.102948 12.903431 C 37.102198 13.818613 36.803982 14.572848 36.190886 15.147558 C 35.591956 15.729933 34.844189 16.012038 33.943172 16.018952 C 32.909093 16.017963 32.003217 15.72926 31.21788 15.167008 C 30.443457 14.601505 30.055696 13.778261 30.048097 12.675444 C 30.055555 12.221685 30.172397 11.616525 30.41929 10.889457 C 30.662932 10.151474 30.970899 9.429982 31.34969 8.746811 C 31.725232 8.052725 32.140941 7.45362 32.603321 6.971325 C 33.06245 6.478115 33.524351 6.233613 33.985774 6.226906 C 34.223568 6.227384 34.418627 6.323767 34.600446 6.495388 C 34.7681 6.659346 34.854938 6.871136 34.851209 7.098016 C 34.858156 7.440542 34.77895 7.773077 34.61359 8.095622 C 34.459144 8.414916 34.287284 8.715632 34.093594 9.022849 C 33.910818 9.326815 33.738958 9.627531 33.603091 9.92941 C 33.45631 10.234539 33.378266 10.53108 33.379875 10.815783 C 33.81786 10.530874 34.273021 10.38344 34.773688 10.38881 C 35.404167 10.391169 35.946852 10.657325 36.412656 11.184029 C 36.870796 11.724898 37.111807 12.294781 37.102948 12.903431 Z M 29.269913 12.895312 C 29.272414 13.821408 28.974198 14.575643 28.382931 15.143853 C 27.794915 15.722977 27.036234 16.008332 26.110137 16.010833 C 25.101138 16.014257 24.198513 15.736469 23.409925 15.163302 C 22.613673 14.604301 22.219411 13.759227 22.219476 12.642246 C 22.212769 12.180823 22.343776 11.583327 22.579754 10.859508 C 22.829898 10.143355 23.141115 9.432777 23.516656 8.738692 C 23.892197 8.044606 24.311157 7.456415 24.770286 6.963205 C 25.232666 6.48091 25.694567 6.236409 26.15599 6.229701 C 26.418863 6.234593 26.621587 6.316811 26.781577 6.494933 C 26.938316 6.662141 27.021904 6.863017 27.021425 7.100811 C 27.017457 7.446587 26.938251 7.779123 26.780555 8.087503 C 26.62611 8.406797 26.446585 8.721678 26.263809 9.025644 C 26.081034 9.32961 25.898259 9.633576 25.748227 9.927791 C 25.590531 10.236171 25.523403 10.529462 25.550091 10.818578 C 25.988076 10.533669 26.443237 10.386235 26.929739 10.383941 C 27.596212 10.387464 28.149811 10.65037 28.593786 11.183574 C 29.051926 11.724443 29.267858 12.289912 29.269913 12.895312 Z M 29.269913 12.895312 " stroke="#000000" stroke-width="1.385" stroke-opacity="1" stroke-miterlimit="4"/><g fill="#ff914d" fill-opacity="1"><g transform="translate(96.220755, 38.667544)"><g><path d="M 7.140625 -8.609375 C 7.109375 -8.453125 7.03125 -8.253906 6.90625 -8.015625 C 6.78125 -7.785156 6.628906 -7.566406 6.453125 -7.359375 C 6.273438 -7.160156 6.09375 -6.992188 5.90625 -6.859375 C 5.726562 -6.722656 5.566406 -6.671875 5.421875 -6.703125 C 5.222656 -6.742188 5.144531 -6.867188 5.1875 -7.078125 C 5.207031 -7.191406 5.257812 -7.296875 5.34375 -7.390625 C 5.425781 -7.492188 5.503906 -7.585938 5.578125 -7.671875 C 5.660156 -7.753906 5.734375 -7.835938 5.796875 -7.921875 C 5.867188 -8.015625 5.910156 -8.117188 5.921875 -8.234375 C 5.753906 -8.148438 5.582031 -8.128906 5.40625 -8.171875 C 5.1875 -8.210938 5.015625 -8.335938 4.890625 -8.546875 C 4.773438 -8.753906 4.742188 -8.96875 4.796875 -9.1875 C 4.859375 -9.488281 5.007812 -9.710938 5.25 -9.859375 C 5.488281 -10.015625 5.765625 -10.0625 6.078125 -10 C 6.429688 -9.925781 6.71875 -9.769531 6.9375 -9.53125 C 7.15625 -9.289062 7.222656 -8.984375 7.140625 -8.609375 Z M 4.53125 -9.125 C 4.5 -8.957031 4.410156 -8.757812 4.265625 -8.53125 C 4.128906 -8.300781 3.976562 -8.082031 3.8125 -7.875 C 3.644531 -7.664062 3.460938 -7.492188 3.265625 -7.359375 C 3.078125 -7.234375 2.910156 -7.1875 2.765625 -7.21875 C 2.578125 -7.25 2.503906 -7.367188 2.546875 -7.578125 C 2.578125 -7.679688 2.625 -7.785156 2.6875 -7.890625 C 2.757812 -7.992188 2.832031 -8.085938 2.90625 -8.171875 C 2.988281 -8.253906 3.0625 -8.335938 3.125 -8.421875 C 3.195312 -8.515625 3.242188 -8.609375 3.265625 -8.703125 C 3.097656 -8.640625 2.9375 -8.625 2.78125 -8.65625 C 2.550781 -8.707031 2.378906 -8.835938 2.265625 -9.046875 C 2.148438 -9.253906 2.113281 -9.46875 2.15625 -9.6875 C 2.21875 -10 2.367188 -10.226562 2.609375 -10.375 C 2.859375 -10.53125 3.132812 -10.578125 3.4375 -10.515625 C 3.789062 -10.441406 4.082031 -10.285156 4.3125 -10.046875 C 4.539062 -9.804688 4.613281 -9.5 4.53125 -9.125 Z M 4.53125 -9.125 "/></g></g></g><path stroke-linecap="butt" transform="matrix(0.336537, 0.0692935, -0.0692935, 0.336537, 91.82869, 24.432625)" fill="none" stroke-linejoin="miter" d="M 36.193594 9.264913 C 36.196223 9.728659 36.085865 10.320134 35.853677 11.052765 C 35.623783 11.796532 35.317907 12.509514 34.938342 13.202848 C 34.569912 13.893889 34.156285 14.478164 33.71318 14.975651 C 33.256648 15.464296 32.818779 15.705347 32.390731 15.712232 C 31.811048 15.715518 31.526114 15.402756 31.518243 14.800804 C 31.516272 14.452994 31.599124 14.122541 31.755666 13.811736 C 31.921049 13.487504 32.088726 13.174407 32.258695 12.872445 C 32.428665 12.570482 32.589791 12.281948 32.73749 11.984572 C 32.876347 11.700623 32.941515 11.397025 32.910724 11.078364 C 32.500039 11.395068 32.046121 11.558173 31.522114 11.549995 C 30.862193 11.558195 30.296588 11.291617 29.838727 10.759103 C 29.367439 10.217747 29.143415 9.637086 29.139801 8.999435 C 29.147972 8.080785 29.449263 7.345532 30.054808 6.791384 C 30.662646 6.248371 31.419176 5.976528 32.346668 5.971272 C 33.378962 5.96765 34.281241 6.23455 35.053506 6.77197 C 35.814636 7.311684 36.193901 8.138953 36.193594 9.264913 Z M 28.410455 9.34693 C 28.406534 9.835239 28.278491 10.45357 28.035169 11.188494 C 27.791846 11.923418 27.48597 12.636401 27.128676 13.325149 C 26.773674 14.025032 26.360046 14.609307 25.892379 15.100245 C 25.435847 15.588889 24.989135 15.843368 24.558795 15.839119 C 23.979112 15.842404 23.691885 15.518508 23.690564 14.891992 C 23.693178 14.566453 23.756053 14.25172 23.899166 13.932073 C 24.044573 13.623561 24.212249 13.310464 24.382218 13.008502 C 24.552188 12.70654 24.711022 12.406871 24.861014 12.120629 C 24.997578 11.825545 25.078466 11.541925 25.076823 11.252084 C 24.63699 11.539968 24.178487 11.680803 23.69247 11.688017 C 23.030256 11.685082 22.464652 11.418503 21.995656 10.888282 C 21.537795 10.355769 21.311479 9.763972 21.307865 9.126321 C 21.3049 8.209964 21.615033 7.461284 22.220579 6.907135 C 22.823832 6.341852 23.589204 6.056582 24.507854 6.064753 C 25.551283 6.058839 26.453562 6.325738 27.236962 6.860866 C 28.020362 7.395994 28.410762 8.22097 28.410455 9.34693 Z M 28.410455 9.34693 " stroke="#000000" stroke-width="1.385" stroke-opacity="1" stroke-miterlimit="4"/></svg>